<svg width="736" height="709" viewBox="0 0 736 709" fill="none" xmlns="http://www.w3.org/2000/svg">
<path d="M443.274 128.461C437.364 128.778 447.852 142.301 453.749 142.796C467.517 143.951 485.84 125.631 493.17 112.059C498.292 102.575 494.891 90.5255 490.137 87.5245C483.964 83.6266 477.544 89.8513 475.251 95.3811C473.569 99.4392 475.772 105.121 469.462 112.472C460.881 122.47 449.337 128.136 443.274 128.461Z" fill="#0F0E0E"/>
<path d="M326.942 170.363C348.463 130.463 405.022 110.72 442.171 127.91C454.782 133.745 459.694 153.53 456.506 167.055C449.199 198.056 418.88 233.405 387.038 232.664C358.192 231.992 313.245 195.758 326.942 170.363Z" fill="white" stroke="#080707" stroke-width="3.40157" stroke-linecap="round"/>
<path d="M363.733 134.499C372.742 129.931 380.388 133.556 387.124 137.618C393.269 141.323 396.835 148.54 399.6 155.162C402.802 162.831 410.637 174.872 403.888 179.722C399.685 182.743 394.218 175.629 390.243 172.315C385.629 168.468 384.311 160.967 378.937 158.28C372.192 154.908 363.306 160.355 356.326 157.501C352.41 155.899 343.305 150.252 346.005 146.994C348.877 143.527 356.796 138.017 363.733 134.499Z" fill="#141414" stroke="#080707" stroke-width="3.40157" stroke-linecap="round"/>
<path d="M346.19 261.397C354.184 261.11 363.803 257.892 368.411 254.184C370.547 252.466 373.55 258.596 372.7 261.202C369.952 269.621 356.623 273.88 348.139 271.338C344.376 270.21 342.264 261.538 346.19 261.397Z" fill="white" stroke="#080707" stroke-width="2.64567" stroke-linecap="round"/>
<g filter="url(#filter0_f_17_3)">
<path d="M293.862 243.139C290.603 244.972 289.884 255.852 293.448 262.849C298.263 272.3 313.876 275.741 324.737 276.495C331.226 276.945 341.497 279.473 342.655 278.425C347.623 273.928 348.757 261.979 340.45 261.057C318.203 258.589 300.502 239.404 293.862 243.139Z" fill="white"/>
<path d="M293.862 243.139C290.603 244.972 289.884 255.852 293.448 262.849C298.263 272.3 313.876 275.741 324.737 276.495C331.226 276.945 341.497 279.473 342.655 278.425C347.623 273.928 348.757 261.979 340.45 261.057C318.203 258.589 300.502 239.404 293.862 243.139Z" stroke="#080707" stroke-width="2.64567" stroke-linecap="round"/>
</g>
<path d="M343.841 277.371C343.871 273.632 340.222 271.692 338.107 269.741" stroke="#080707" stroke-width="1.13386" stroke-linecap="round"/>
<path d="M346.183 272.928C345.612 269.982 342.06 267.825 340.215 267.232" stroke="#080707" stroke-width="1.13386" stroke-linecap="round"/>
<path d="M294.689 183.595L296.067 170.638C297.756 163.357 297.961 161.103 301.029 156.579C304.467 154.972 307.047 165.088 316.467 171.465C331.575 169.184 345.969 168.329 356.714 174.773C356.714 174.773 369.696 165.814 374.908 165.952C376.462 165.993 376.562 185.249 376.562 185.249C384.594 194.622 384.811 204.03 385.935 213.367C388.004 230.556 379.77 242 367.741 253.063C362.399 256.053 353.27 261.158 333.145 259.128C317.046 256.977 304.311 251.767 297.032 245.207C291.068 237.624 283.847 227.281 286.419 213.091C287.708 202.52 291.1 192.128 294.689 183.595Z" fill="white" stroke="#080301" stroke-width="2.64567" stroke-linecap="round"/>
<path d="M342.524 208.345C342.524 208.345 342.705 200.081 345.018 195.319C346.431 192.409 352.715 179.678 360.33 176.328C363.965 174.728 370.723 167.173 372.742 165.921C377.977 162.678 377.087 176.556 376.985 176.684L376.767 183.24L379.353 188.061C379.642 187.772 383.552 195.152 384.103 198.704C384.43 200.807 385.491 206.97 385.424 209.097C385.273 213.907 377.224 214.977 377.224 214.977C374.187 216.59 354.136 218.808 349.977 217.21C347.905 216.414 342.866 213.138 342.524 208.345Z" fill="#0D0D0D"/>
<path d="M325.702 243.828C329.055 249.23 332.409 245.893 335.763 243.828C338.481 245.669 340.004 250.06 346.377 244.104" fill="white"/>
<path d="M325.702 243.828C329.055 249.23 332.409 245.893 335.763 243.828C338.481 245.669 340.004 250.06 346.377 244.104" stroke="#080301" stroke-width="1.51181" stroke-linecap="round"/>
<path d="M335.676 243.374C334.275 243.368 333.579 241.439 332.919 240.204C332.425 239.28 331.473 238.017 332.092 237.172C333.451 235.317 337.364 235.264 338.984 236.896C339.664 237.582 339.21 238.896 338.846 239.791C338.246 241.268 337.271 243.381 335.676 243.374Z" fill="#060606"/>
<path d="M321.36 233.215C322.768 233.215 323.91 231.333 323.91 229.011C323.91 226.689 322.768 224.807 321.36 224.807C319.951 224.807 318.81 226.689 318.81 229.011C318.81 231.333 319.951 233.215 321.36 233.215Z" fill="#010101"/>
<path d="M350.305 233.968C351.789 233.968 352.993 232.119 352.993 229.838C352.993 227.557 351.789 225.708 350.305 225.708C348.821 225.708 347.617 227.557 347.617 229.838C347.617 232.119 348.821 233.968 350.305 233.968Z" fill="#010101"/>
<g filter="url(#filter1_f_17_3)">
<path d="M315.847 243.415C317.635 243.415 319.086 241.81 319.086 239.831C319.086 237.852 317.635 236.247 315.847 236.247C314.058 236.247 312.607 237.852 312.607 239.831C312.607 241.81 314.058 243.415 315.847 243.415Z" fill="#FFC2C2"/>
</g>
<g filter="url(#filter2_f_17_3)">
<path d="M354.302 245.62C356.472 245.62 358.23 243.738 358.23 241.416C358.23 239.094 356.472 237.212 354.302 237.212C352.133 237.212 350.374 239.094 350.374 241.416C350.374 243.738 352.133 245.62 354.302 245.62Z" fill="#FFC2C2"/>
</g>
<path d="M354.418 240.026C358.701 237.793 362.548 234.961 372.014 234.456" stroke="#0A0A0A" stroke-width="1.13386" stroke-linecap="round"/>
<path d="M354.922 242.036C359.558 239.674 364.82 239.817 369.946 239.418" stroke="#0A0A0A" stroke-width="1.13386" stroke-linecap="round"/>
<path d="M354.949 243.576C361.084 242.245 365.161 242.173 368.706 243.69" stroke="#0A0A0A" stroke-width="1.13386" stroke-linecap="round"/>
<path d="M315.778 238.453C309.581 234.323 302.536 231.607 294.138 231.148" stroke="#080301" stroke-width="1.13386" stroke-linecap="round"/>
<path d="M314.537 240.107C308.472 237.946 302.408 235.76 296.343 237.901" stroke="#080301" stroke-width="1.13386" stroke-linecap="round"/>
<path d="M314.813 241.761C304.257 240.784 301.6 242.282 299.237 244.38" stroke="#080301" stroke-width="1.13386" stroke-linecap="round"/>
<path d="M300.479 180.015C301.423 180.015 301.3 167.66 303.306 167.247C304.389 167.024 308.193 174.582 308.764 174.264" stroke="#080707" stroke-width="1.51181" stroke-linecap="round"/>
<path d="M301.232 303.446L518.727 384.739L467.326 491.568L248.065 400.369L301.232 303.446Z" fill="#BCB5EA" stroke="#060300" stroke-width="1.88976" stroke-linecap="round"/>
<path d="M552.99 468.084L567.325 432.247L537.552 419.567L521.012 454.301L552.99 468.084Z" fill="#E1EA87" stroke="#060300" stroke-width="1.88976" stroke-linecap="round"/>
<path d="M551.508 467.441C561.442 435.6 552.002 429.763 552.002 429.763L528.977 420.267L519.772 455.323L551.508 467.441Z" fill="#DDEA60" stroke="#060300" stroke-width="1.47973" stroke-linecap="round"/>
<path d="M305.44 314.49L264.09 391.677L466.981 474.929C480.474 447.254 492.995 420.264 505.024 391.125L305.44 314.49Z" fill="#E8EAD3" stroke="#060300" stroke-width="1.88976" stroke-linecap="round"/>
<path d="M354.098 439.966C355.925 439.966 357.406 438.732 357.406 437.209C357.406 435.687 355.925 434.453 354.098 434.453C352.271 434.453 350.79 435.687 350.79 437.209C350.79 438.732 352.271 439.966 354.098 439.966Z" fill="#E8EAD3" stroke="#060300" stroke-width="1.88976" stroke-linecap="round"/>
<path d="M310.948 365.955L296.643 361.615L282.289 388.823L296.594 393.164L310.948 365.955Z" fill="#E1EA87" stroke="#060300" stroke-width="1.70986" stroke-linecap="round"/>
<path d="M335.07 372.896L320.765 368.556L306.411 395.764L320.716 400.105L335.07 372.896Z" fill="#E1EA87" stroke="#060300" stroke-width="1.70986" stroke-linecap="round"/>
<path d="M348.573 358.32L334.268 353.979L319.914 381.188L334.219 385.528L348.573 358.32Z" fill="#E1EA87" stroke="#060300" stroke-width="1.70986" stroke-linecap="round"/>
<path d="M325.586 349.262L311.281 344.921L296.927 372.13L311.233 376.47L325.586 349.262Z" fill="#E1EA87" stroke="#060300" stroke-width="1.70986" stroke-linecap="round"/>
<path d="M442.723 422.875C446.377 422.875 449.339 419.789 449.339 415.983C449.339 412.177 446.377 409.091 442.723 409.091C439.069 409.091 436.107 412.177 436.107 415.983C436.107 419.789 439.069 422.875 442.723 422.875Z" fill="#EA7F59" stroke="#060300" stroke-width="1.88976" stroke-linecap="round"/>
<path d="M420.945 427.837C422.62 427.837 423.977 426.479 423.977 424.804C423.977 423.13 422.62 421.772 420.945 421.772C419.27 421.772 417.913 423.13 417.913 424.804C417.913 426.479 419.27 427.837 420.945 427.837Z" fill="#AF87EA" stroke="#060300" stroke-width="1.88976" stroke-linecap="round"/>
<path d="M433.35 445.341C435.329 445.341 436.934 443.799 436.934 441.896C436.934 439.993 435.329 438.45 433.35 438.45C431.371 438.45 429.766 439.993 429.766 441.896C429.766 443.799 431.371 445.341 433.35 445.341Z" fill="#9DCE77" stroke="#060300" stroke-width="1.88976" stroke-linecap="round"/>
<path d="M456.506 439.966C458.333 439.966 459.814 438.485 459.814 436.658C459.814 434.831 458.333 433.35 456.506 433.35C454.679 433.35 453.198 434.831 453.198 436.658C453.198 438.485 454.679 439.966 456.506 439.966Z" fill="#87C2EA" stroke="#060300" stroke-width="1.88976" stroke-linecap="round"/>
<path d="M469.738 417.913C471.565 417.913 473.046 415.938 473.046 413.502C473.046 411.066 471.565 409.091 469.738 409.091C467.911 409.091 466.43 411.066 466.43 413.502C466.43 415.938 467.911 417.913 469.738 417.913Z" fill="#60643A" stroke="#060300" stroke-width="1.88976" stroke-linecap="round"/>
<path d="M450.166 395.859C452.145 395.859 453.749 394.378 453.749 392.551C453.749 390.724 452.145 389.243 450.166 389.243C448.186 389.243 446.582 390.724 446.582 392.551C446.582 394.378 448.186 395.859 450.166 395.859Z" fill="#87EAAB" stroke="#060300" stroke-width="1.88976" stroke-linecap="round"/>
<path d="M425.356 400.821C427.183 400.821 428.664 399.217 428.664 397.237C428.664 395.258 427.183 393.654 425.356 393.654C423.529 393.654 422.048 395.258 422.048 397.237C422.048 399.217 423.529 400.821 425.356 400.821Z" fill="#E1EA87" stroke="#060300" stroke-width="1.88976" stroke-linecap="round"/>
<path d="M380.465 407.681L349.276 392.994L342.258 406.589L373.447 421.276L380.465 407.681Z" fill="#9DCE77" stroke="#060300" stroke-width="1.89039" stroke-linecap="round"/>
<path d="M390.877 388.004L359.688 374.073L352.671 387.838L383.859 401.769L390.877 388.004Z" fill="#9DCE77" stroke="#060300" stroke-width="1.89101" stroke-linecap="round"/>
<path d="M389.713 362.578L380.605 358.03L378.493 363.328L387.601 367.877L389.713 362.578Z" fill="#CF4A13" stroke="#060300" stroke-width="1.64536" stroke-linecap="round"/>
<path d="M564.918 140.268C573.562 132.394 587.589 132.142 597.648 132.321C608.592 132.515 620.86 138.791 629.074 148.861C636.514 157.981 640.444 165.575 641.203 169.26C642.916 177.564 641.177 190.118 633.485 190.762C625.766 191.408 623.653 181.579 620.253 171.465C619.196 168.324 609.102 157.264 605.363 156.19C598.41 154.191 591.1 153.892 584.967 156.579L564.918 140.268Z" fill="#0E0E0E" stroke="#080707" stroke-width="1.88976"/>
<path d="M430.593 192.968C443.723 159.709 478.859 132.294 513.845 127.359C539.392 123.754 570.296 135.748 585.519 156.579C595.199 169.826 594.799 189.803 589.378 205.648C582.205 226.616 566.318 243.049 551.876 256.572C535.675 271.742 519.756 285.373 500.601 294.614L430.593 192.968Z" fill="#0F0F0F" stroke="#0B0B0B" stroke-width="1.88976"/>
<path d="M454.852 321.429C452.921 351.498 427.758 361.403 448.787 373.254C475.348 387.273 499.098 337.383 500.889 294.138L454.852 321.429Z" fill="black" stroke="#0A0A0A" stroke-width="1.88976"/>
<path d="M447.747 372.7C446.868 368.723 449.001 366.106 450.67 363.148" stroke="#272727" stroke-width="1.51181" stroke-linecap="round"/>
<path d="M454.959 375.234C454.272 370.63 456.076 367.701 458.467 364.123" stroke="#272727" stroke-width="1.51181" stroke-linecap="round"/>
<path d="M370.498 280.079C360.923 311.598 320.937 319.866 337.418 339.623C365.71 353.977 375.521 325.684 391.448 311.505L370.498 280.079Z" fill="#0E0E0E" stroke="#0F0F0F" stroke-width="1.88976"/>
<path d="M342.104 341.415C343.791 336.027 345.848 335.068 347.893 333.972" stroke="#272727" stroke-width="1.51181" stroke-linecap="round"/>
<path d="M336.866 337.004C338.149 333.423 339.617 330.06 343.069 329.01" stroke="#262626" stroke-width="1.51181" stroke-linecap="round"/>
<path d="M388.692 207.302C394.759 191.133 401.628 176.167 413.502 168.709C420.422 175.02 424.32 184.355 428.388 193.519C450.979 189.353 469.215 198.54 484.624 207.302C499.764 209.612 504.831 200.801 516.05 199.584C526.371 214.47 516.084 232.112 512.742 246.998C511.847 278.45 503.801 295.661 490.138 311.505C462.605 334.642 450.943 330.297 434.13 329.12C414.034 326.308 402.856 324.371 380.422 303.235C370.438 287.797 363.722 270.216 366.928 253.609C366.873 243.118 374.262 224.019 388.692 207.302Z" fill="#0D0D0D" stroke="#101010" stroke-width="1.51181"/>
<path d="M407.989 301.305C410.738 310.283 421.715 312.334 422.245 302.906C422.772 316.402 435.086 314.545 440.242 307.094" stroke="#363636" stroke-width="1.51181"/>
<path d="M446.484 294.343C448.989 294.343 451.02 291.91 451.02 288.908C451.02 285.907 448.989 283.474 446.484 283.474C443.98 283.474 441.949 285.907 441.949 288.908C441.949 291.91 443.98 294.343 446.484 294.343Z" fill="#333333" stroke="#363636" stroke-width="1.61917"/>
<path d="M504.383 237.42C504.383 237.42 494.031 224.5 495.569 221.9C497.234 219.083 508.919 211.162 508.919 211.162L507.687 211.596" stroke="#363636" stroke-width="2.26772"/>
<path d="M400.769 203.503C400.769 203.503 416.574 201.033 416.753 198.045C416.947 194.809 411.685 180.892 411.685 180.892L412.465 182.061" stroke="#363636" stroke-width="2.26772"/>
<g filter="url(#filter3_f_17_3)">
<path d="M449.89 309.575C453.696 309.575 456.782 306.675 456.782 303.097C456.782 299.519 453.696 296.619 449.89 296.619C446.084 296.619 442.998 299.519 442.998 303.097C442.998 306.675 446.084 309.575 449.89 309.575Z" fill="#E9AFAF"/>
</g>
<path d="M448.787 299.651C464.151 291.234 478.442 291.405 492.343 294.689" stroke="url(#paint0_linear_17_3)" stroke-width="1.51181" stroke-linecap="round"/>
<path d="M449.339 302.408C463.407 300.81 478.046 297.075 489.31 305.991" stroke="url(#paint1_linear_17_3)" stroke-width="1.51181" stroke-linecap="round"/>
<path d="M449.063 307.37C460.15 307.663 471.672 306.761 479.938 314.813" stroke="url(#paint2_linear_17_3)" stroke-width="1.51181" stroke-linecap="round"/>
<g filter="url(#filter4_f_17_3)">
<path d="M402.062 301.581C405.335 301.581 407.988 298.865 407.988 295.516C407.988 292.167 405.335 289.451 402.062 289.451C398.788 289.451 396.135 292.167 396.135 295.516C396.135 298.865 398.788 301.581 402.062 301.581Z" fill="#E9AFAF"/>
</g>
<path d="M401.924 296.343C392.351 290.198 377.439 286.085 367.465 289.026" stroke="url(#paint3_linear_17_3)" stroke-width="1.51181" stroke-linecap="round"/>
<path d="M401.372 299.375C392.763 294.202 383.032 299.232 375.877 302.057" stroke="url(#paint4_linear_17_3)" stroke-width="1.51181" stroke-linecap="round"/>
<path d="M403.302 292.484C392.555 282.936 382.447 272.216 367.465 270.43" stroke="url(#paint5_linear_17_3)" stroke-width="1.51181" stroke-linecap="round"/>
<path d="M405.709 286.588C408.19 286.588 410.201 284.167 410.201 281.181C410.201 278.195 408.19 275.775 405.709 275.775C403.229 275.775 401.217 278.195 401.217 281.181C401.217 284.167 403.229 286.588 405.709 286.588Z" fill="#333333" stroke="#363636" stroke-width="1.46356"/>
<path d="M421.909 302.062C418.324 299.402 416.966 292.988 418.275 292.202C420.073 291.612 425.897 292.085 428.667 294.646C429.702 295.333 426.15 300.181 421.909 302.062Z" fill="#333333" stroke="#363636" stroke-width="2.6371"/>
<path d="M662.568 248.101C669.444 254.675 670.713 269.083 662.981 294.275C657.169 314.992 639.734 331.481 635.139 329.147C626.241 324.523 641.605 311.224 643.409 299.375C665.785 292.416 660.342 262.483 662.568 248.101Z" fill="url(#paint6_linear_17_3)" stroke="#050200" stroke-width="3.40157" stroke-linecap="round"/>
<path d="M557.952 239.28C563.494 225.638 572.813 214.515 587.173 206.751C614.034 196.131 629.094 206.165 644.511 215.572C673.574 246.09 659.595 259 658.846 277.322C653.836 298.569 637.527 309.899 621.355 317.018C618.297 330.907 611.18 342.09 599.302 350.098C561.179 366.227 551.901 356.547 540.86 348.444C537.924 345.138 539.735 344.206 540.081 342.541C527.143 341.228 518.586 329.789 518.228 323.695C517.849 317.234 543.801 268.133 557.952 239.28Z" fill="#E48429" stroke="#010000" stroke-width="3.77953" stroke-linecap="round"/>
<path d="M588.114 252.929C596.283 249.246 604.136 246.989 611.27 247.967C617.856 256.605 607.167 265.243 603.551 273.88C607.976 290.33 602.094 306.74 583.441 320.32C570.511 329.735 549.318 327.652 537.809 320.387C517.299 307.441 516.081 303.091 513.784 291.596C512.149 283.415 516.232 261.746 525.262 252.311C527.154 250.333 533.693 246.559 539.045 243.557C545.252 234.299 551.051 224.667 563.304 220.952C569.297 228.119 566.903 235.287 567.163 242.454C575.418 245.31 582.956 248.525 588.114 252.929Z" fill="#E48429" stroke="#020100" stroke-width="1.51181" stroke-linecap="round"/>
<path d="M552.064 287.541C548.013 286.455 538.206 295.242 533.433 302.087C531.983 304.167 527.69 311.554 529.371 313.477C534.426 319.259 549.16 326.313 554.993 324.914C557.293 324.363 558.874 318.496 559.449 316.08C561.654 306.816 555.458 288.451 552.064 287.541Z" fill="#C4B8B8"/>
<path d="M538.218 303.79C539.55 308.005 543.472 308.397 546.35 304.066C547.78 309.329 550.145 311.509 554.689 309.993" stroke="#220F06" stroke-width="1.51181" stroke-linecap="round"/>
<path d="M545.373 299.464C545.96 298.608 549.05 299.839 549.176 300.972C549.264 301.765 547.247 302.857 546.646 302.669C545.923 302.442 544.879 300.184 545.373 299.464Z" fill="#0D0C0C" stroke="#220F06" stroke-width="0.880551" stroke-linecap="round"/>
<path d="M536.909 290.958C538.576 291.94 540.699 290.922 541.65 288.683C542.601 286.445 542.021 283.834 540.353 282.852C538.686 281.87 536.564 282.889 535.613 285.127C534.662 287.366 535.242 289.976 536.909 290.958Z" fill="black" stroke="#402005" stroke-width="1.41555" stroke-linecap="round"/>
<path d="M563.724 300.137C565.328 300.249 567.018 298.658 567.499 296.583C567.98 294.509 567.069 292.737 565.465 292.625C563.861 292.513 562.17 294.104 561.69 296.179C561.209 298.253 562.119 300.025 563.724 300.137Z" fill="black" stroke="#402005" stroke-width="1.26523" stroke-linecap="round"/>
<path d="M560.609 227.674L561.778 241.709L551.252 242.489" fill="url(#paint7_linear_17_3)"/>
<path d="M560.609 227.674L561.778 241.709L551.252 242.489" stroke="#402005" stroke-width="1.51181" stroke-linecap="round"/>
<g filter="url(#filter5_f_17_3)">
<path d="M530.238 301.038C532.931 301.038 535.114 298.705 535.114 295.827C535.114 292.949 532.931 290.615 530.238 290.615C527.545 290.615 525.361 292.949 525.361 295.827C525.361 298.705 527.545 301.038 530.238 301.038Z" fill="#712E2E"/>
<path d="M530.238 301.038C532.931 301.038 535.114 298.705 535.114 295.827C535.114 292.949 532.931 290.615 530.238 290.615C527.545 290.615 525.361 292.949 525.361 295.827C525.361 298.705 527.545 301.038 530.238 301.038Z" stroke="#402005" stroke-width="1.33475"/>
</g>
<path d="M531.918 292.62C525.489 282.66 516.391 278.665 506.324 276.833" stroke="#402005" stroke-width="1.10212" stroke-linecap="round"/>
<path d="M530.495 294.277C522.226 289.181 514.43 282.514 503.833 285.149" stroke="#402005" stroke-width="1.10212" stroke-linecap="round"/>
<path d="M528.734 297.625C521.612 294.631 514.682 290.725 506.318 293.653" stroke="#402005" stroke-width="1.10212" stroke-linecap="round"/>
<g filter="url(#filter6_f_17_3)">
<path d="M567.787 315.97C571.06 315.97 573.714 313.254 573.714 309.905C573.714 306.556 571.06 303.84 567.787 303.84C564.514 303.84 561.86 306.556 561.86 309.905C561.86 313.254 564.514 315.97 567.787 315.97Z" fill="#712E2E"/>
<path d="M567.787 315.97C571.06 315.97 573.714 313.254 573.714 309.905C573.714 306.556 571.06 303.84 567.787 303.84C564.514 303.84 561.86 306.556 561.86 309.905C561.86 313.254 564.514 315.97 567.787 315.97Z" stroke="#402005" stroke-width="1.58745"/>
</g>
<path d="M566.998 307.338C578.61 306.203 587.257 310.764 594.828 317.391" stroke="#402005" stroke-width="1.08358" stroke-linecap="round"/>
<path d="M566.591 309.445C575.579 312.696 585.489 314.623 589.941 324.385" stroke="#402005" stroke-width="1.08358" stroke-linecap="round"/>
<path d="M565.088 312.844C571.753 316.496 579.004 319.443 581.864 327.666" stroke="#402005" stroke-width="1.08358" stroke-linecap="round"/>
<path d="M605.832 253.795L596.086 258.083L601.544 267.05" fill="url(#paint8_linear_17_3)"/>
<path d="M605.832 253.795L596.086 258.083L601.544 267.05" stroke="#402005" stroke-width="1.51181" stroke-linecap="round"/>
<path d="M539.149 343.674C544.642 330.511 565.499 340.512 577.248 334.661" stroke="#060300" stroke-width="1.88976" stroke-linecap="round"/>
<path d="M543.149 341.349C547.179 343.219 547.99 343.851 551.628 343.941" stroke="#402005" stroke-width="2.32819" stroke-linecap="round"/>
<path d="M540.75 344.671C543.801 346.304 543.912 348.631 551.318 349.305" stroke="#402005" stroke-width="2.37754" stroke-linecap="round"/>
<defs>
<filter id="filter0_f_17_3" x="289.751" y="241.331" width="58.1152" height="38.6731" filterUnits="userSpaceOnUse" color-interpolation-filters="sRGB">
<feFlood flood-opacity="0" result="BackgroundImageFix"/>
<feBlend mode="normal" in="SourceGraphic" in2="BackgroundImageFix" result="shape"/>
<feGaussianBlur stdDeviation="0.00231001" result="effect1_foregroundBlur_17_3"/>
</filter>
<filter id="filter1_f_17_3" x="309.349" y="232.989" width="12.9945" height="13.6837" filterUnits="userSpaceOnUse" color-interpolation-filters="sRGB">
<feFlood flood-opacity="0" result="BackgroundImageFix"/>
<feBlend mode="normal" in="SourceGraphic" in2="BackgroundImageFix" result="shape"/>
<feGaussianBlur stdDeviation="1.62909" result="effect1_foregroundBlur_17_3"/>
</filter>
<filter id="filter2_f_17_3" x="347.116" y="233.954" width="14.3729" height="14.9242" filterUnits="userSpaceOnUse" color-interpolation-filters="sRGB">
<feFlood flood-opacity="0" result="BackgroundImageFix"/>
<feBlend mode="normal" in="SourceGraphic" in2="BackgroundImageFix" result="shape"/>
<feGaussianBlur stdDeviation="1.62909" result="effect1_foregroundBlur_17_3"/>
</filter>
<filter id="filter3_f_17_3" x="440.616" y="294.236" width="18.5479" height="17.7208" filterUnits="userSpaceOnUse" color-interpolation-filters="sRGB">
<feFlood flood-opacity="0" result="BackgroundImageFix"/>
<feBlend mode="normal" in="SourceGraphic" in2="BackgroundImageFix" result="shape"/>
<feGaussianBlur stdDeviation="1.19111" result="effect1_foregroundBlur_17_3"/>
</filter>
<filter id="filter4_f_17_3" x="393.973" y="287.289" width="16.178" height="16.4536" filterUnits="userSpaceOnUse" color-interpolation-filters="sRGB">
<feFlood flood-opacity="0" result="BackgroundImageFix"/>
<feBlend mode="normal" in="SourceGraphic" in2="BackgroundImageFix" result="shape"/>
<feGaussianBlur stdDeviation="1.08107" result="effect1_foregroundBlur_17_3"/>
</filter>
<filter id="filter5_f_17_3" x="522.876" y="288.13" width="14.7229" height="15.3935" filterUnits="userSpaceOnUse" color-interpolation-filters="sRGB">
<feFlood flood-opacity="0" result="BackgroundImageFix"/>
<feBlend mode="normal" in="SourceGraphic" in2="BackgroundImageFix" result="shape"/>
<feGaussianBlur stdDeviation="0.908977" result="effect1_foregroundBlur_17_3"/>
</filter>
<filter id="filter6_f_17_3" x="558.904" y="300.884" width="17.7654" height="18.0411" filterUnits="userSpaceOnUse" color-interpolation-filters="sRGB">
<feFlood flood-opacity="0" result="BackgroundImageFix"/>
<feBlend mode="normal" in="SourceGraphic" in2="BackgroundImageFix" result="shape"/>
<feGaussianBlur stdDeviation="1.08107" result="effect1_foregroundBlur_17_3"/>
</filter>
<linearGradient id="paint0_linear_17_3" x1="448.031" y1="296.125" x2="493.099" y2="296.125" gradientUnits="userSpaceOnUse">
<stop stop-color="#363636"/>
<stop offset="1" stop-color="#FAFAFA" stop-opacity="0"/>
</linearGradient>
<linearGradient id="paint1_linear_17_3" x1="448.583" y1="303.124" x2="490.066" y2="303.124" gradientUnits="userSpaceOnUse">
<stop stop-color="#363636"/>
<stop offset="1" stop-color="#FAFAFA" stop-opacity="0"/>
</linearGradient>
<linearGradient id="paint2_linear_17_3" x1="448.307" y1="311.091" x2="480.694" y2="311.091" gradientUnits="userSpaceOnUse">
<stop stop-color="#363636"/>
<stop offset="1" stop-color="#FAFAFA" stop-opacity="0"/>
</linearGradient>
<linearGradient id="paint3_linear_17_3" x1="366.709" y1="289.176" x2="402.68" y2="289.176" gradientUnits="userSpaceOnUse">
<stop stop-color="#363636"/>
<stop offset="1" stop-color="#FAFAFA" stop-opacity="0"/>
</linearGradient>
<linearGradient id="paint4_linear_17_3" x1="370.053" y1="301.184" x2="402.128" y2="297.676" gradientUnits="userSpaceOnUse">
<stop stop-color="#363636"/>
<stop offset="1" stop-color="#FAFAFA" stop-opacity="0"/>
</linearGradient>
<linearGradient id="paint5_linear_17_3" x1="366.709" y1="281.457" x2="404.058" y2="281.457" gradientUnits="userSpaceOnUse">
<stop stop-color="#363636"/>
<stop offset="1" stop-color="#FAFAFA" stop-opacity="0"/>
</linearGradient>
<linearGradient id="paint6_linear_17_3" x1="630.378" y1="287.137" x2="669.228" y2="287.137" gradientUnits="userSpaceOnUse">
<stop offset="0.390023" stop-color="#5F2600"/>
<stop offset="0.690476" stop-color="#A65716"/>
<stop offset="1" stop-color="#9F4910" stop-opacity="0.934256"/>
</linearGradient>
<linearGradient id="paint7_linear_17_3" x1="503.272" y1="274.165" x2="614.124" y2="274.165" gradientUnits="userSpaceOnUse">
<stop offset="0.390023" stop-color="#5F2600"/>
<stop offset="0.690476" stop-color="#A65716"/>
<stop offset="1" stop-color="#9F4910" stop-opacity="0.934256"/>
</linearGradient>
<linearGradient id="paint8_linear_17_3" x1="503.272" y1="274.165" x2="614.124" y2="274.165" gradientUnits="userSpaceOnUse">
<stop offset="0.390023" stop-color="#5F2600"/>
<stop offset="0.690476" stop-color="#A65716"/>
<stop offset="1" stop-color="#9F4910" stop-opacity="0.934256"/>
</linearGradient>
</defs>
</svg>
